<svg width="20" height="20" viewBox="0 0 20 20" fill="none" xmlns="http://www.w3.org/2000/svg">
<path d="M7.67034 12.361C9.46421 14.1417 11.5406 15.8428 12.3557 15.0214C13.5229 13.8457 14.2413 12.8228 16.8313 14.8883C19.4213 16.9549 17.4432 18.3456 16.3128 19.4848C15.0083 20.7992 10.1224 19.577 5.27938 14.7707C0.436672 9.96344 -0.822892 5.08703 0.482558 3.77204C1.61333 2.63273 2.98925 0.644862 5.07381 3.21976C7.15938 5.79336 6.14197 6.51964 4.9748 7.69567C4.16003 8.51671 5.87619 10.58 7.67034 12.361ZM10.2715 3.86579C10.2715 3.86579 9.73037 3.78124 9.35147 4.16043C8.96143 4.55047 8.94442 5.22238 9.35542 5.63304C9.5983 5.87592 9.94081 5.92769 9.94081 5.92769C10.6085 6.05291 11.6147 6.26495 12.6855 7.33542C13.756 8.40585 13.968 9.41208 14.0932 10.0801C14.0932 10.0801 14.145 10.4226 14.3879 10.6655C14.7986 11.0762 15.4705 11.0595 15.8605 10.6694C16.2394 10.2906 16.1551 9.74943 16.1551 9.74943C15.9431 8.39708 15.2876 6.98443 14.162 5.85891C13.0362 4.73339 11.6235 4.07816 10.2715 3.86579V3.86579ZM15.3475 4.67338C17.3102 6.63604 18.1469 8.86351 17.8745 10.6685C17.8745 10.6685 17.7795 11.2401 18.1528 11.6134C18.573 12.0336 19.239 12.0093 19.6323 11.6164C19.885 11.3637 19.9401 10.9523 19.9401 10.9523C20.1652 9.39251 19.8821 6.25454 16.8241 3.19686C13.7661 0.139146 10.6284 -0.144029 9.06858 0.0808242C9.06858 0.0808242 8.65758 0.13558 8.40453 0.388582C8.01122 0.781895 7.98731 1.44792 8.40747 1.86808C8.78083 2.24144 9.35238 2.14634 9.35238 2.14634C11.1574 1.87396 13.3848 2.71077 15.3475 4.67338Z" fill="white"/>
</svg>
