<svg width="20" height="20" viewBox="0 0 20 20" fill="none" xmlns="http://www.w3.org/2000/svg">
<path fill-rule="evenodd" clip-rule="evenodd" d="M4.82333 11.6833C4.85914 11.6953 4.89596 11.7039 4.93333 11.7092C5.1691 12.2647 5.40354 12.8208 5.63666 13.3775C6.05583 14.3792 6.47833 15.4108 6.57083 15.7075C6.68666 16.0725 6.80833 16.3208 6.94166 16.4908C7.01083 16.5775 7.09 16.6542 7.18333 16.7125C7.23195 16.7429 7.28397 16.7675 7.33833 16.7858C7.605 16.8858 7.84833 16.8442 8.00083 16.7933C8.09032 16.7628 8.17548 16.7208 8.25416 16.6683L8.25833 16.6667L10.6133 15.1983L13.3342 17.2833C13.3742 17.3142 13.4175 17.34 13.4642 17.3608C13.7908 17.5025 14.1075 17.5525 14.4058 17.5125C14.7025 17.4708 14.9383 17.3467 15.1142 17.2058C15.3161 17.0431 15.477 16.8353 15.5842 16.5992L15.5917 16.5808L15.5942 16.5742L15.5958 16.5708V16.5692L15.5967 16.5683C15.6112 16.5325 15.6223 16.4954 15.63 16.4575L18.1133 3.93666C18.1212 3.89658 18.1251 3.85583 18.125 3.81499C18.125 3.44833 17.9867 3.09916 17.6625 2.88833C17.3842 2.70749 17.075 2.69916 16.8792 2.71416C16.6692 2.73083 16.4742 2.78249 16.3433 2.82416C16.2701 2.84737 16.1978 2.8735 16.1267 2.90249L16.1175 2.90666L2.18916 8.36999L2.1875 8.37083C2.14037 8.38816 2.09395 8.40734 2.04833 8.42833C1.93788 8.47798 1.83193 8.53709 1.73166 8.60499C1.5425 8.73416 1.10666 9.08916 1.18083 9.67583C1.23916 10.1425 1.55916 10.43 1.755 10.5683C1.86166 10.6442 1.96333 10.6983 2.03833 10.7342C2.07166 10.7508 2.14333 10.7792 2.17416 10.7925L2.1825 10.795L4.82333 11.6833ZM16.605 4.05666H16.6033C16.5962 4.05985 16.5889 4.0629 16.5817 4.06583L2.63666 9.53666C2.62949 9.53956 2.62227 9.54234 2.615 9.54499L2.60666 9.54749C2.58119 9.5575 2.55617 9.56863 2.53166 9.58083C2.55486 9.59411 2.57879 9.60607 2.60333 9.61666L5.22166 10.4983C5.26845 10.5141 5.31321 10.5354 5.355 10.5617L14.0025 5.49916L14.0108 5.49499C14.0444 5.47458 14.0789 5.45567 14.1142 5.43833C14.1742 5.40749 14.27 5.36249 14.3783 5.32916C14.4533 5.30583 14.6758 5.23999 14.9158 5.31749C15.0431 5.35762 15.1566 5.43273 15.2432 5.53426C15.3299 5.63579 15.3862 5.75964 15.4058 5.89166C15.4369 6.00729 15.4377 6.12894 15.4083 6.24499C15.35 6.47416 15.19 6.65249 15.0433 6.78916C14.9183 6.90583 13.2975 8.46916 11.6983 10.0125L9.52083 12.1125L9.13333 12.4875L14.0267 16.2392C14.0927 16.2669 14.1644 16.2783 14.2358 16.2725C14.2718 16.2676 14.3056 16.2526 14.3333 16.2292C14.3671 16.2006 14.3961 16.1669 14.4192 16.1292L14.4208 16.1283L16.8292 3.98416C16.7533 4.00241 16.6789 4.02637 16.6067 4.05583L16.605 4.05666ZM9.55416 14.385L8.5775 13.6367L8.34083 15.1408L9.55416 14.385ZM7.68166 12.1517L8.6525 11.2142L10.83 9.11249L11.6408 8.33083L6.2075 11.5117L6.23666 11.58C6.57933 12.3895 6.91823 13.2006 7.25333 14.0133L7.48916 12.5133C7.5105 12.3742 7.57836 12.2473 7.68166 12.1517Z" fill="white"/>
</svg>
